<svg width="48" height="48" viewBox="0 0 48 48" fill="none" xmlns="http://www.w3.org/2000/svg">
<path d="M38.5214 14.5C38.1414 14.36 37.2614 14.5 36.9014 14.7C36.1214 15.12 34.4614 16.12 34.1814 16.96C34.1014 17.2 34.3614 17.98 34.3614 17.98L31.9414 18.4C31.9414 18.4 31.1214 18.14 30.9414 17.92C30.7814 17.7 30.9414 17.02 30.7614 16.84C30.5814 16.68 29.9014 16.64 29.7814 16.86C29.5614 17.28 30.3214 18.38 30.0214 18.72C29.7414 19.04 28.3614 18.76 28.3614 18.76C27.8214 18.76 27.2814 18.7 26.7614 18.52L24.6614 17.84C24.3414 17.74 24.0214 17.6 23.7214 17.42C23.7214 17.42 21.4014 16.7 21.2614 16.02C21.1614 15.56 22.2014 14.78 22.0814 14.32C21.9214 13.7 19.9814 12.84 19.9814 12.84C19.9814 12.84 19.5014 11.6 19.8014 11.4C19.9414 11.32 20.2014 11.72 20.3614 11.76C20.5414 11.8 20.9214 11.54 20.9614 11.36C21.0614 11 20.2614 9.99999 20.2614 9.99999L21.5614 8.75999C21.5614 8.75999 21.9614 7.97999 21.8414 7.75999C21.7214 7.51999 21.0814 7.37999 20.8014 7.37999C20.3214 7.37999 18.8814 7.73998 18.8814 7.73998L18.5214 7.39999C17.4814 6.39999 16.1014 5.89999 14.7214 5.99999C14.7214 5.99999 13.9814 6.63999 14.0214 6.91999C14.0814 7.41999 15.5014 7.65999 15.5814 8.13999C15.6014 8.27999 15.2014 8.55999 15.2014 8.55999C15.2014 8.55999 14.8814 8.55999 14.8214 8.63999C14.5214 8.99999 14.4814 10.18 14.8014 10.54C15.0614 10.86 16.1014 11.02 16.1814 11.42C16.5014 13.06 12.3014 16.9 12.3014 16.9C12.3014 16.9 11.0414 16.6 10.6614 16.74C10.2414 16.9 9.56141 17.76 9.62141 18.2C9.74141 19 11.4614 20.22 11.2214 20.98C11.1214 21.3 10.3214 21.56 9.98141 21.58C9.64141 21.58 8.96141 21.28 8.60141 21.34C8.38141 21.38 7.94141 21.74 7.94141 21.98C7.94141 22.4 9.06141 23.2 9.06141 23.2C9.06141 23.2 8.88141 24.02 8.96141 24.28C9.14141 24.9 10.2414 25.98 10.8814 26L10.9214 25.96C10.9214 25.96 12.3414 25.14 12.7614 25.38C12.9814 25.5 13.0014 26.4 13.0014 26.4V28.52C13.0414 29.1 13.1214 29.68 13.3014 30.24L15.5214 37.1L16.1214 38.32L16.9414 41.14C16.9414 41.14 17.3814 41.8 17.6014 41.92C17.8614 42.06 18.5414 42.02 18.7614 41.82C18.9214 41.7 18.9814 41.06 18.9814 41.06L20.9414 38.72V38.5L20.9014 37.42L20.9414 37.26L21.4814 35.38L21.4214 35.34V35.28L21.4814 35.36V35.26L21.1814 33.38C21.1814 33.38 21.3014 32.72 21.4214 32.54C22.2014 31.4 25.8214 29.22 25.8214 29.22L26.6014 28.14C26.6014 28.14 26.9014 27.48 27.0814 27.34C27.3614 27.14 28.1414 27.18 28.4214 26.98C28.9014 26.62 29.2014 25.36 29.5814 24.88C29.7214 24.7 30.1014 24.42 30.3214 24.42C30.6014 24.42 31.2014 24.92 31.4014 24.72C32.2214 23.96 30.4614 20.36 30.4614 20.36C30.4614 20.36 30.1014 19 30.4214 18.74C30.6814 18.52 31.7414 19 31.7414 19L31.9614 19.94L32.6014 20.28C32.6014 20.28 34.5214 19.86 34.8414 20.32C34.9414 20.46 34.6214 20.92 34.6214 20.92L34.8214 21.96C34.8214 21.96 34.8214 23.78 35.3014 23.86C35.6814 23.92 36.1014 22.58 36.1014 22.58L35.9414 21.44L36.7214 21.52C36.7214 21.52 37.1414 20.02 37.3014 19.54C37.4214 19.14 37.8414 17.96 37.8414 17.96L39.4014 16.92C39.4014 16.92 39.9814 16.3 39.9814 16.02C39.9814 15.48 39.0214 14.6 38.5014 14.4L38.5214 14.5Z" fill="#3535F3"/>
</svg>
