<svg width="60" height="22" viewBox="0 0 60 22" fill="none" xmlns="http://www.w3.org/2000/svg">
<g clip-path="url(#clip0_224_81159)">
<path d="M10.5263 0H49.4737C55.2874 0 60 4.71263 60 10.5263C60 16.34 55.2874 21.0526 49.4737 21.0526H10.5263C4.71263 21.0526 0 16.34 0 10.5263C0 4.71263 4.71263 0 10.5263 0Z" fill="#0F3CC9"/>
<path d="M27.9069 8.52845H23.428L23.1406 9.88529H24.588L23.7733 13.74H25.4175L26.2322 9.88529H27.6122L27.9069 8.52845ZM32.1185 8.68845C31.8543 8.58003 31.5364 8.52634 31.1648 8.52634H28.5101L27.409 13.7379H29.0533L29.4375 11.9348H29.868C30.0038 11.9348 30.1206 11.9537 30.2185 11.9916C30.3164 12.0295 30.3954 12.0811 30.4554 12.1463C30.5312 12.2369 30.5838 12.3769 30.6143 12.5653C30.6438 12.7537 30.6543 12.9863 30.6438 13.2632C30.6333 13.4337 30.6185 13.5916 30.5985 13.739H32.3185C32.3333 13.1611 32.3185 12.7158 32.2764 12.4042C32.2343 12.0916 32.1575 11.8642 32.0469 11.7179C31.9354 11.5716 31.7775 11.4611 31.5712 11.3853V11.3706C31.7869 11.32 31.9996 11.2348 32.2059 11.1137C32.4112 10.9927 32.5838 10.8263 32.7217 10.6158C32.8606 10.4042 32.929 10.1527 32.929 9.86108C32.929 9.5895 32.8606 9.35371 32.7217 9.15161C32.5838 8.95055 32.3827 8.79582 32.1185 8.6874V8.68845ZM31.0438 10.5906C30.9785 10.6937 30.8817 10.7737 30.7564 10.8316C30.6312 10.8895 30.4775 10.9179 30.2964 10.9179H30.2954H29.5038L29.7606 9.72634H30.4396C30.6659 9.72634 30.8396 9.76424 30.9606 9.84319C31.0806 9.92108 31.1417 10.0506 31.1417 10.2316C31.1417 10.3674 31.109 10.4874 31.0438 10.5906V10.5906ZM52.2217 11.8527H53.168C53.1364 11.9779 53.088 12.0895 53.0217 12.1853C52.9312 12.3158 52.8154 12.4169 52.6743 12.4832C52.5343 12.5516 52.3806 12.5853 52.2143 12.5853C52.0133 12.5853 51.8427 12.5442 51.7048 12.4611C51.5669 12.3769 51.4638 12.26 51.3954 12.1095C51.328 11.959 51.2933 11.7895 51.2933 11.6032C51.2933 11.2558 51.3459 10.9411 51.448 10.659C51.5511 10.3769 51.6975 10.1527 51.8859 9.98634C52.0743 9.82108 52.2943 9.73792 52.5459 9.73792C52.7575 9.73792 52.9259 9.78634 53.0522 9.88108C53.1775 9.97687 53.2617 10.1127 53.3017 10.2895H54.8869C54.8469 9.88108 54.7269 9.53687 54.529 9.25476C54.329 8.97266 54.0638 8.76319 53.7312 8.62424C53.3996 8.48634 53.0164 8.41687 52.5848 8.41687C52.0206 8.41687 51.5112 8.55687 51.0543 8.83582C50.5985 9.11477 50.2417 9.50108 49.9817 9.99476C49.7227 10.4874 49.5943 11.0411 49.5943 11.6558C49.5943 12.099 49.6922 12.4884 49.888 12.8221C50.0848 13.1569 50.3648 13.4158 50.7301 13.6C51.0954 13.7842 51.5269 13.8769 52.0248 13.8769C52.5638 13.8769 53.0333 13.7674 53.4333 13.5484C53.8343 13.3295 54.1522 13.0179 54.389 12.6158C54.6248 12.2127 54.7775 11.739 54.8427 11.1958L54.8869 10.8179H52.4406L52.2217 11.8527V11.8527ZM48.9659 9.75371L49.2227 8.53898H45.1069L45.0859 8.60213C45.4027 8.73687 45.5796 9.09477 45.4712 9.47477C45.4522 9.53898 44.7912 11.5295 44.7912 11.5295H46.1427C46.2375 11.439 46.3417 11.3706 46.4522 11.3253C46.5638 11.2811 46.6985 11.2579 46.8596 11.2579C46.9901 11.2579 47.1059 11.2821 47.2038 11.3295C47.3027 11.3779 47.3764 11.4495 47.4269 11.5453C47.4775 11.64 47.5027 11.7516 47.5027 11.8769C47.5027 12.0274 47.4722 12.1632 47.4122 12.2811C47.3522 12.399 47.2627 12.4916 47.1448 12.5569C47.0269 12.6221 46.8869 12.6558 46.7259 12.6558C46.5154 12.6558 46.3469 12.6179 46.2248 12.5421C46.1006 12.4663 46.029 12.3611 46.009 12.2242H44.5059C44.4806 12.5463 44.5459 12.8306 44.7017 13.0769C44.8575 13.3242 45.1027 13.5137 45.4343 13.6474C45.7659 13.7811 46.1764 13.8474 46.6648 13.8474C47.1533 13.8474 47.5606 13.7621 47.9175 13.5906C48.2754 13.419 48.5533 13.179 48.749 12.8695C48.9459 12.56 49.0427 12.2042 49.0427 11.8011C49.0427 11.4895 48.9827 11.2179 48.8617 10.9853C48.7417 10.7537 48.5712 10.5779 48.3522 10.4569C48.1333 10.3358 47.8806 10.2748 47.5933 10.2748C47.3659 10.2748 47.1596 10.3032 46.9743 10.3579C46.789 10.4137 46.6154 10.4937 46.4533 10.6H46.4301L46.709 9.75371H48.9669H48.9659ZM36.9133 8.52845L36.2638 11.6137C36.2133 11.8453 36.1533 12.0274 36.0827 12.1611C36.0133 12.2948 35.9227 12.3906 35.8122 12.4516C35.7006 12.5116 35.5638 12.5411 35.3964 12.5411C35.229 12.5411 35.0859 12.5084 34.9785 12.4421C34.8701 12.3769 34.7985 12.2758 34.7638 12.1369C34.729 11.999 34.7333 11.8242 34.7796 11.6127L35.4354 8.5274H33.7912L33.1354 11.6127C33.0301 12.1 33.0459 12.5106 33.1848 12.8463C33.3227 13.1811 33.5701 13.4337 33.9269 13.6042C34.2838 13.7748 34.7438 13.8611 35.308 13.8611C35.8312 13.8611 36.2638 13.78 36.608 13.62C36.9533 13.46 37.2269 13.2232 37.4312 12.9106C37.6343 12.599 37.7859 12.2095 37.8869 11.7421L38.5585 8.52845H36.9143H36.9133ZM38.1006 13.74H42.4312L42.6943 12.5032H40.0101L40.1764 11.7116H42.4922L42.7406 10.5653H40.4175L40.5901 9.76529H43.1164L43.3806 8.52845H39.2017L38.1006 13.74Z" fill="white"/>
<g clip-path="url(#clip1_224_81159)">
<rect x="1.57812" y="1.57892" width="17.8947" height="17.8947" rx="8.94737" fill="#0A2885"/>
<path d="M7.89907 6.97518H7.60082C7.03482 6.97518 6.72564 7.2943 6.72564 7.93272V11.0116C6.72564 11.8043 6.45788 12.0825 5.82974 12.0825C5.33564 12.0825 4.93417 11.8661 4.61488 11.4749C4.5839 11.4338 3.93555 11.7425 3.93555 12.5047C3.93555 13.3283 4.70734 13.833 6.13925 13.833C7.87902 13.833 8.79596 12.9577 8.79596 11.0426V7.93272C8.79496 7.29513 8.48611 6.97518 7.89907 6.97518ZM14.8333 8.4785C13.1444 8.4785 12.0221 9.54937 12.0221 11.1461C12.0221 12.7835 13.103 13.834 14.8021 13.834C16.4905 13.834 17.6023 12.7835 17.6023 11.1567C17.6033 9.54937 16.5013 8.4785 14.8333 8.4785ZM14.8126 12.3191C14.1533 12.3191 13.7004 11.8353 13.7004 11.1453C13.7004 10.466 14.1644 9.98183 14.8126 9.98183C15.4608 9.98183 15.9245 10.466 15.9245 11.1558C15.9247 11.8248 15.4511 12.3191 14.8127 12.3191H14.8126ZM10.5952 8.52987H10.3889C9.88472 8.52987 9.50379 8.76648 9.50379 9.48757V12.7825C9.50379 13.5137 9.87461 13.7404 10.4098 13.7404H10.6159C11.1205 13.7404 11.4807 13.493 11.4807 12.7825V9.48757C11.4807 8.74626 11.1309 8.52987 10.5952 8.52987ZM10.482 6.14142C9.84346 6.14142 9.44199 6.50196 9.44199 7.0683C9.44199 7.64458 9.85407 8.00496 10.5129 8.00496C11.1513 8.00496 11.5529 7.64458 11.5529 7.0683C11.5529 6.49202 11.141 6.14142 10.482 6.14142Z" fill="white"/>
</g>
</g>
<defs>
<clipPath id="clip0_224_81159">
<rect width="60" height="21.0526" fill="white"/>
</clipPath>
<clipPath id="clip1_224_81159">
<rect width="17.8947" height="17.8947" fill="white" transform="translate(1.57812 1.57892)"/>
</clipPath>
</defs>
</svg>
